<?xml version="1.0" encoding="utf-8"?>
<!-- Generator: Adobe Illustrator 16.0.0, SVG Export Plug-In . SVG Version: 6.00 Build 0)  -->
<!DOCTYPE svg PUBLIC "-//W3C//DTD SVG 1.1//EN" "http://www.w3.org/Graphics/SVG/1.1/DTD/svg11.dtd">
<svg version="1.1" id="Capa_1" xmlns="http://www.w3.org/2000/svg" xmlns:xlink="http://www.w3.org/1999/xlink" x="0px" y="0px"
	 width="792px" height="612px" viewBox="0 0 792 612" enable-background="new 0 0 792 612" xml:space="preserve">
<g>
	<path fill="#002B86" d="M569.597,322.221c0,82.626-66.95,149.641-149.577,149.641s-149.577-67.015-149.577-149.641
		s66.95-149.578,149.577-149.578S569.597,239.595,569.597,322.221"/>
	<path fill="#FFFFFF" d="M434.17,443.876h-42.391v-99.381h-28.304V302.04h28.239v-3.3c0-10.789,0-21.641,0-32.429
		c-0.062-22.401,15.93-42.455,37.695-47.977c4.062-1.016,8.379-1.523,12.566-1.586c11.043-0.254,22.021-0.065,33.064-0.065
		c0.442,0,0.889,0.065,1.522,0.128v42.455h-3.492c-8.058,0-16.056,0-24.113,0c-8.757,0.063-14.216,4.506-14.659,13.2
		c-0.508,9.709-0.129,19.42-0.129,29.383h42.394v42.52H434.17V443.876z"/>
</g>
</svg>
