<?xml version="1.0" encoding="utf-8"?>
<!-- Generator: Adobe Illustrator 16.0.0, SVG Export Plug-In . SVG Version: 6.00 Build 0)  -->
<!DOCTYPE svg PUBLIC "-//W3C//DTD SVG 1.1//EN" "http://www.w3.org/Graphics/SVG/1.1/DTD/svg11.dtd">
<svg version="1.1" id="Capa_1" xmlns="http://www.w3.org/2000/svg" xmlns:xlink="http://www.w3.org/1999/xlink" x="0px" y="0px"
	 width="792px" height="612px" viewBox="0 0 792 612" enable-background="new 0 0 792 612" xml:space="preserve">
<text transform="matrix(1 0 0 1.1426 139.9604 409.6816)"><tspan x="0" y="0" fill="#004594" font-family="'Calibri-BoldItalic'" font-size="36.7066">Linea de Au</tspan><tspan x="176.901" y="0" fill="#004594" font-family="'Calibri-BoldItalic'" font-size="36.7066">t</tspan><tspan x="189.26" y="0" fill="#004594" font-family="'Calibri-BoldItalic'" font-size="36.7066">obuses Bolivianos </tspan></text>
<text transform="matrix(1 0 0 1.1426 607.5928 409.6816)"><tspan x="0" y="0" fill="#004594" font-family="'Calibri-BoldItalic'" font-size="16.314">S.</tspan><tspan x="11.949" y="0" fill="#004594" font-family="'Calibri-BoldItalic'" font-size="16.314">R</tspan><tspan x="21.199" y="0" fill="#004594" font-family="'Calibri-BoldItalic'" font-size="16.314">.L</tspan></text>
<text transform="matrix(1 0 0 1.1426 640.0615 409.6816)" fill="#004594" font-family="'Calibri-BoldItalic'" font-size="14.2748"> </text>
<polygon fill="#004597" points="304.25,271.875 277.5,271.875 283.125,250.125 310,250.125 "/>
<polygon fill="#004597" points="278.375,369.125 251.5,369.125 275.809,278.848 302,278.848 "/>
<polygon fill="#004597" points="634.964,299 640.5,278.333 545.5,278.333 540.04,299 "/>
<polygon fill="#004597" points="557.833,348.667 561.666,334 625.587,334 630.812,314.5 535.944,314.5 521.5,369.167 
	616.166,369.167 621.658,348.667 "/>
<g>
	<path fill="#004597" d="M452.417,346.5c-10.292-1-9.536-9.599-8.667-15.417c3.75-25.083,16-29.833,26.19-30.416h43.977
		c0.227,0,0.449,0.017,0.673,0.034l5.91-22.368l-43.333,0.334c-19.667-0.334-40.017,6.347-52.25,36.083
		c-12.583,30.583-3.333,54.417,23.917,54.417H496.5l5.988-22.667H452.417z"/>
	<path fill="#004597" d="M174.789,321.635l20.153-74.838h-26.371l-21.752,79.21c-4.819,16.493-1.883,41.368,28.431,43.118h55.625
		l7-26.5H187C178.417,342.917,169,340.5,174.789,321.635"/>
</g>
<text transform="matrix(1 0 0 1 629.25 365.5)" fill="#004597" font-family="'ErasITC-Medium'" font-size="16">R</text>
<g>
	<path fill="#E0040B" d="M735.125,297.625c-3.188-20-20.25-3.25-52.459-30.375c-25.916-22-19.666-55.333,1.959-58.833
		c-8.125,4.833-17.688,14.083-14.042,28h0.375c0,0,3.603-16.087,19.25-16.125c16.854-0.042,17.854-3.167,19.167-7.542
		c0,0-1.283-3.137-8.845-9.55c0,0-1.187-5.575-6.812-7.45c-1.452-0.484-3.625-1.844-3.781-4.719
		c-0.52-9.553-5.021-13.687-5.562-14.416c-0.541-0.73-0.9-0.38-0.987,0c-11.889,51.635-134.723,42.302-142.264,4.51
		c0.208-4.936-13.938-4.936-13.209,13.292c-7.041-0.792-17.416,3.083-36.25,18c-2.041,1.552-7.76,2.614-7.875-4.5
		c0,0-0.041-5.042-13.875-1.542c-14.354,3.062-46.166,2.375-70.416-7.792c-2.5,0-8.167,11.917,1.656,15.917
		c6.344,2.125,11.707,1.519,20.469,0.833c11.708-0.916,19.074,0.575,23.75,1.229c10.875,1.521,28.662,8.002,34.625,10.563
		c9.75,4.187,27.813,9.937,33.938,10.187c8.813,1.021,17.896-1.437,22.688-4.645c4.619-3.093,10.375-2.167,14.438-1.105
		C571,235.5,640.5,253.75,731.333,309.75C735.059,307.75,735.643,300.869,735.125,297.625 M695.669,201.631
		c0.97,0.167,1.675,0.644,1.675,1.213c0,0.707-1.084,1.281-2.422,1.281s-2.422-0.574-2.422-1.281c0-0.291,0.19-0.556,0.498-0.771
		c-1.072-0.631-2.904-0.479-2.904-0.479C692,200.906,695.669,201.631,695.669,201.631"/>
	<path fill="#004597" d="M342.125,303.875l-17.375,65.25h-26.5l24.5-90.792c0,0,34.75,0.112,50.5,0.515
		C389,279.25,414.5,290.5,408.75,312l-15.25,57.167l-27-0.042c0,0,12.75-47.125,15-54.625s-2.125-17.875-18.5-17.75l-14.375-0.125
		C344.083,296.625,343.667,298.208,342.125,303.875"/>
	<path fill="#E0040B" d="M330,369.125l31.375,0.042c0,0,14.243-50.893,15.125-55.542c1.375-7.25-1.875-12.5-13.125-12.5H348.25
		L330,369.125z"/>
	<circle fill="none" stroke="#004597" stroke-miterlimit="10" cx="633.473" cy="361.167" r="9.155"/>
</g>
</svg>
