<?xml version="1.0" encoding="utf-8"?>
<!-- Generator: Adobe Illustrator 16.0.0, SVG Export Plug-In . SVG Version: 6.00 Build 0)  -->
<!DOCTYPE svg PUBLIC "-//W3C//DTD SVG 1.1//EN" "http://www.w3.org/Graphics/SVG/1.1/DTD/svg11.dtd">
<svg version="1.1" id="Capa_1" xmlns="http://www.w3.org/2000/svg" xmlns:xlink="http://www.w3.org/1999/xlink" x="0px" y="0px"
	 width="792px" height="612px" viewBox="0 0 792 612" enable-background="new 0 0 792 612" xml:space="preserve">
<g>
	<path fill="#6AB026" d="M420.315,230.534c-8.909-3.875-18.376-5.127-28.074-4.339c-8.561,0.742-16.589,3.109-24.06,7.263
		c-9.768,5.429-17.517,12.969-23.109,22.668c-7.146,12.25-9.35,25.452-7.169,39.374c1.392,8.817,4.779,16.914,9.954,24.246
		c0.557,0.789,0.626,1.416,0.301,2.344c-0.835,2.135-1.508,4.362-2.273,6.566c-1.578,4.663-3.133,9.326-4.826,14.246
		c0.649-0.186,1.021-0.256,1.393-0.395c6.542-2.041,13.085-4.084,19.628-6.242c1.485-0.486,2.599-0.395,3.922,0.441
		c12.367,7.494,25.777,10.231,40.023,8.167c15.173-2.204,27.864-9.235,37.609-21.044c12.043-14.502,16.52-31.323,12.691-49.838
		C452.033,253.388,439.619,238.957,420.315,230.534z M421.058,318.679c-3.573,1.066-7.1,0.604-10.626-0.512
		c-6.496-2.088-12.993-4.176-18.84-7.818c-8.167-5.174-14.664-12.019-20.325-19.792c-3.063-4.223-6.079-8.468-7.703-13.549
		c-2.367-7.541-1.438-14.478,3.944-20.58c2.135-2.39,4.547-3.713,7.981-2.97c3.202-0.929,4.455,1.253,5.522,3.897
		c1.438,3.736,2.993,7.495,4.688,11.137c0.975,2.065,0.742,3.875-0.558,5.591c-1.09,1.438-2.25,2.831-3.434,4.177
		c-1.438,1.717-1.531,2.297-0.325,4.27c5.313,8.63,12.39,15.196,21.717,19.28c4.224,1.833,4.224,1.879,7.124-1.647
		c1.275-1.509,2.482-3.109,3.734-4.64c1.438-1.764,2.135-1.973,4.199-1.067c2.553,1.067,5.035,2.25,7.496,3.411
		c2.109,1.021,4.152,2.088,6.264,3.063c1.439,0.626,1.926,1.647,1.856,3.155C433.54,311.95,429.573,316.149,421.058,318.679z"/>
	<path fill="#6AB026" d="M433.981,185.035c-56.659-20.974-119.559,7.935-140.557,64.571
		c-20.997,56.659,7.912,119.627,64.572,140.603c56.658,20.999,119.581-7.935,140.58-64.594
		C519.573,268.957,490.663,206.033,433.981,185.035z M469.038,290.766c-0.137,0.371-0.254,0.72-0.277,1.067
		c-0.648,3.806-0.975,7.633-1.902,11.323c-8.956,34.966-42.553,57.888-79.071,53.132c-8.376-1.066-16.381-3.573-23.852-7.61
		c-0.882-0.439-1.671-0.51-2.645-0.162c-12.761,4.084-25.568,8.074-38.33,12.134v-0.557c0.186-0.418,0.418-0.858,0.58-1.276
		c3.898-11.414,7.726-22.876,11.671-34.314c0.51-1.438,0.417-2.553-0.372-3.944c-7.772-13.689-10.626-28.375-8.631-43.991
		c1.484-11.879,5.801-22.761,12.947-32.413c11.787-15.963,27.518-25.499,47.1-28.725c1.995-0.324,4.014-0.557,6.031-0.835h9.978
		c1.74,0.232,3.48,0.418,5.197,0.673c12.737,1.88,24.27,6.659,34.386,14.71c14.523,11.578,23.34,26.566,26.333,44.896
		c0.326,1.972,0.58,3.944,0.857,5.917V290.766z"/>
</g>
</svg>
